<?xml version="1.0" encoding="UTF-8"?>
<svg version="1.1" xmlns="http://www.w3.org/2000/svg" width="135" height="90">
<path d="M0 0 C44.55 0 89.1 0 135 0 C135 29.7 135 59.4 135 90 C90.45 90 45.9 90 0 90 C0 60.3 0 30.6 0 0 Z M16 9 C20.24237098 13.76941725 20.24237098 13.76941725 23.25 15.125 C23.8275 15.41375 24.405 15.7025 25 16 C25.33 16.99 25.66 17.98 26 19 C28.01567579 20.89610305 28.01567579 20.89610305 30.4375 22.6875 C31.24058594 23.31011719 32.04367188 23.93273438 32.87109375 24.57421875 C34.84991791 26.18548601 34.84991791 26.18548601 37 26 C37.33 26.99 37.66 27.98 38 29 C40.01508358 29.73323796 40.01508358 29.73323796 42 30 C42 30.66 42 31.32 42 32 C43.65 32.66 45.3 33.32 47 34 C47 34.66 47 35.32 47 36 C49.17264655 38.04456059 49.17264655 38.04456059 51.875 40.125 C53.23238281 41.21167969 53.23238281 41.21167969 54.6171875 42.3203125 C56.78655811 44.19205234 56.78655811 44.19205234 59 44 C59 44.66 59 45.32 59 46 C60.78723941 47.58455866 60.78723941 47.58455866 63 49.125 C63.7425 49.66382813 64.485 50.20265625 65.25 50.7578125 C65.8275 51.16773438 66.405 51.57765625 67 52 C70.1414436 50.16749123 73.22602027 48.36301977 76 46 C76 45.34 76 44.68 76 44 C76.57234375 43.731875 77.1446875 43.46375 77.734375 43.1875 C80.07884634 41.95867364 82.12404938 40.57477824 84.25 39 C84.95640625 38.484375 85.6628125 37.96875 86.390625 37.4375 C87.18726562 36.7259375 87.18726562 36.7259375 88 36 C88 35.34 88 34.68 88 34 C89.65 33.34 91.3 32.68 93 32 C93 31.34 93 30.68 93 30 C94.65 29.34 96.3 28.68 98 28 C98 27.34 98 26.68 98 26 C98.57234375 25.731875 99.1446875 25.46375 99.734375 25.1875 C102.07884634 23.95867364 104.12404938 22.57477824 106.25 21 C106.95640625 20.484375 107.6628125 19.96875 108.390625 19.4375 C108.92171875 18.963125 109.4528125 18.48875 110 18 C110 17.34 110 16.68 110 16 C110.556875 15.773125 111.11375 15.54625 111.6875 15.3125 C114.71156783 13.73164717 114.71156783 13.73164717 119 9 C85.01 9 51.02 9 16 9 Z M7 13 C7 33.46 7 53.92 7 75 C11.06288685 72.96855658 13.12516639 71.04893481 16.25 67.8125 C21.27904294 62.67022811 26.49861376 57.88663904 32.046875 53.3125 C32.69140625 52.77625 33.3359375 52.24 34 51.6875 C34.5775 51.21699219 35.155 50.74648438 35.75 50.26171875 C37.23460001 49.05921273 37.23460001 49.05921273 37 47 C38.32 46.34 39.64 45.68 41 45 C41 43.68 41 42.36 41 41 C37.56063691 37.31696345 37.56063691 37.31696345 33 36 C32.67 35.01 32.34 34.02 32 33 C28.94491974 29.96722801 28.94491974 29.96722801 25 29 C25 28.34 25 27.68 25 27 C24.0409375 26.8453125 24.0409375 26.8453125 23.0625 26.6875 C22.0415625 26.3471875 22.0415625 26.3471875 21 26 C20.67 25.01 20.34 24.02 20 23 C16.94491974 19.96722801 16.94491974 19.96722801 13 19 C13 18.34 13 17.68 13 17 C12.195625 16.71125 11.39125 16.4225 10.5625 16.125 C8 15 8 15 7 13 Z M125.4375 14.375 C123.77914204 15.88807063 123.77914204 15.88807063 124 18 C122.35 18.66 120.7 19.32 119 20 C119 20.66 119 21.32 119 22 C117.35 22.66 115.7 23.32 114 24 C114 24.66 114 25.32 114 26 C113.42765625 26.268125 112.8553125 26.53625 112.265625 26.8125 C109.92115366 28.04132636 107.87595062 29.42522176 105.75 31 C104.69039062 31.7734375 104.69039062 31.7734375 103.609375 32.5625 C103.07828125 33.036875 102.5471875 33.51125 102 34 C102 34.66 102 35.32 102 36 C101.443125 36.2475 100.88625 36.495 100.3125 36.75 C97.60028873 38.21606015 95.36412635 40.02989471 93 42 C93.79117904 43.99983534 93.79117904 43.99983534 95 46 C95.99 46.33 96.98 46.66 98 47 C98.33 47.99 98.66 48.98 99 50 C100.35251674 51.41008336 100.35251674 51.41008336 102.125 52.8125 C106.45401283 56.48035451 110.60772006 60.31206019 114.75 64.1875 C115.72477295 65.09689331 115.72477295 65.09689331 116.71923828 66.0246582 C119.31068556 68.4490773 121.87014712 70.86470027 124.328125 73.42578125 C125.85995449 75.22850795 125.85995449 75.22850795 128 75 C128 54.54 128 34.08 128 13 C126.77822672 12.88989535 126.77822672 12.88989535 125.4375 14.375 Z M48 48 C48 48.66 48 49.32 48 50 C46.02 50.99 46.02 50.99 44 52 C44 52.66 44 53.32 44 54 C43.41734375 54.268125 42.8346875 54.53625 42.234375 54.8125 C39.97213399 56.01480991 38.19423682 57.33825913 36.25 59 C35.63640625 59.515625 35.0228125 60.03125 34.390625 60.5625 C32.76823624 61.90623252 32.76823624 61.90623252 33 64 C32.01 64.33 31.02 64.66 30 65 C28.31002677 66.64302953 26.64783606 68.31471312 25 70 C23.26773034 71.48313424 21.51557932 72.93652675 19.74609375 74.375 C17.46712515 76.41661055 17.46712515 76.41661055 14 81 C48.98 81 83.96 81 120 81 C120.23480663 78.8724503 120.23480663 78.8724503 118.4609375 77.44921875 C117.77257812 76.86785156 117.08421875 76.28648438 116.375 75.6875 C115.64796875 75.06746094 114.9209375 74.44742188 114.171875 73.80859375 C112.33241001 72.27680906 110.4810823 70.76151257 108.625 69.25 C106 67 106 67 104 64 C103.34 64 102.68 64 102 64 C101.505 62.515 101.505 62.515 101 61 C99.27482476 59.25146078 99.27482476 59.25146078 97.1875 57.5625 C94.88734132 55.62032666 92.72884408 53.7217084 90.625 51.5625 C89.13544499 49.76896376 89.13544499 49.76896376 87 50 C86.505 49.01 86.505 49.01 86 48 C83.46326712 49.3553326 83.46326712 49.3553326 81 51 C81 51.66 81 52.32 81 53 C79.35 53.66 77.7 54.32 76 55 C76 55.66 76 56.32 76 57 C75.401875 57.28875 74.80375 57.5775 74.1875 57.875 C71.80672208 59.04742026 71.80672208 59.04742026 69 61 C69 61.66 69 62.32 69 63 C68.01 63 67.02 63 66 63 C66 62.34 66 61.68 66 61 C64.68 60.67 63.36 60.34 62 60 C62 59.34 62 58.68 62 58 C59.525 57.01 59.525 57.01 57 56 C57 55.34 57 54.68 57 54 C54.98208664 52.41030753 54.98208664 52.41030753 52.5 50.875 C51.6646875 50.33617187 50.829375 49.79734375 49.96875 49.2421875 C48.99421875 48.62730469 48.99421875 48.62730469 48 48 Z " fill="#007147" transform="translate(0,0)"/>
<path d="" fill="#000000" transform="translate(0,0)"/>
<path d="" fill="#000000" transform="translate(0,0)"/>
<path d="" fill="#000000" transform="translate(0,0)"/>
<path d="" fill="#000000" transform="translate(0,0)"/>
<path d="" fill="#000000" transform="translate(0,0)"/>
<path d="" fill="#000000" transform="translate(0,0)"/>
<path d="" fill="#000000" transform="translate(0,0)"/>
<path d="" fill="#000000" transform="translate(0,0)"/>
<path d="" fill="#000000" transform="translate(0,0)"/>
<path d="" fill="#000000" transform="translate(0,0)"/>
<path d="" fill="#000000" transform="translate(0,0)"/>
<path d="" fill="#000000" transform="translate(0,0)"/>
</svg>
