<?xml version="1.0" encoding="UTF-8"?>
<svg version="1.1" xmlns="http://www.w3.org/2000/svg" width="143" height="150">
<path d="M0 0 C0 0.66 0 1.32 0 2 C2.97 2.495 2.97 2.495 6 3 C6 3.66 6 4.32 6 5 C7.98 5.66 9.96 6.32 12 7 C12 7.66 12 8.32 12 9 C12.73605469 9.2475 13.47210938 9.495 14.23046875 9.75 C17.26353941 11.11894585 18.99790209 12.62873585 21.3125 15 C22.00988281 15.70125 22.70726563 16.4025 23.42578125 17.125 C25 19 25 19 25 21 C25.66 21 26.32 21 27 21 C28.5078125 23.08203125 28.5078125 23.08203125 30.125 25.8125 C30.66382813 26.70582031 31.20265625 27.59914063 31.7578125 28.51953125 C33 31 33 31 33 34 C33.66 34 34.32 34 35 34 C35.65256456 35.70577342 36.29673041 37.41476089 36.9375 39.125 C37.29714844 40.07632813 37.65679687 41.02765625 38.02734375 42.0078125 C40.30525701 49.01536896 40.18321638 55.95928012 40.1875 63.25 C40.19974609 64.33152344 40.21199219 65.41304688 40.22460938 66.52734375 C40.23679409 73.26142987 39.62035206 79.45983679 38 86 C37.34 86 36.68 86 36 86 C35.67 88.31 35.34 90.62 35 93 C34.34 93 33.68 93 33 93 C33 93.99 33 94.98 33 96 C29.62537285 95.45276317 27.91765 94.9451 25 93 C25 91.68 25 90.36 25 89 C25.66 89 26.32 89 27 89 C27.13277344 88.21753906 27.26554687 87.43507813 27.40234375 86.62890625 C27.57894531 85.61699219 27.75554687 84.60507813 27.9375 83.5625 C28.11152344 82.55316406 28.28554687 81.54382813 28.46484375 80.50390625 C29 78 29 78 30 77 C30.39148761 75.48834346 30.73972457 73.96530368 31.0625 72.4375 C31.32740234 71.19806641 31.32740234 71.19806641 31.59765625 69.93359375 C31.73042969 69.29550781 31.86320312 68.65742187 32 68 C30.515 68.495 30.515 68.495 29 69 C27.59175107 69.08021999 26.18002769 69.10765977 24.76953125 69.09765625 C23.96708984 69.09443359 23.16464844 69.09121094 22.33789062 69.08789062 C21.50451172 69.07951172 20.67113281 69.07113281 19.8125 69.0625 C18.96751953 69.05798828 18.12253906 69.05347656 17.25195312 69.04882812 C15.16793845 69.03705403 13.08396023 69.0191189 11 69 C10.81824219 70.73636719 10.81824219 70.73636719 10.6328125 72.5078125 C10.46388684 74.04691292 10.29459668 75.58597337 10.125 77.125 C10.04636719 77.88554688 9.96773438 78.64609375 9.88671875 79.4296875 C9.39026335 83.85959721 8.59599921 87.80211971 7 92 C4.03 91.67 1.06 91.34 -2 91 C-1.835 89.5975 -1.67 88.195 -1.5 86.75 C-0.89748627 80.826696 -0.9080246 74.94774251 -1 69 C-1.56509277 69.00523682 -2.13018555 69.01047363 -2.71240234 69.01586914 C-5.2665903 69.03662422 -7.82076053 69.0496554 -10.375 69.0625 C-11.26445313 69.07087891 -12.15390625 69.07925781 -13.0703125 69.08789062 C-13.92109375 69.09111328 -14.771875 69.09433594 -15.6484375 69.09765625 C-16.82672119 69.10551147 -16.82672119 69.10551147 -18.02880859 69.11352539 C-20 69 -20 69 -22 68 C-22 71.3 -22 74.6 -22 78 C-24.97 78 -27.94 78 -31 78 C-31 75.03 -31 72.06 -31 69 C-37.93 69 -44.86 69 -52 69 C-52 71.64 -52 74.28 -52 77 C-56.455 77.495 -56.455 77.495 -61 78 C-61 74.7 -61 71.4 -61 68 C-62.485 68.495 -62.485 68.495 -64 69 C-65.40824893 69.08021999 -66.81997231 69.10765977 -68.23046875 69.09765625 C-69.03291016 69.09443359 -69.83535156 69.09121094 -70.66210938 69.08789062 C-71.49548828 69.07951172 -72.32886719 69.07113281 -73.1875 69.0625 C-74.03248047 69.05798828 -74.87746094 69.05347656 -75.74804688 69.04882812 C-77.83206155 69.03705403 -79.91603977 69.0191189 -82 69 C-81.88544319 70.91731918 -81.75793742 72.8338675 -81.625 74.75 C-81.55539063 75.81734375 -81.48578125 76.8846875 -81.4140625 77.984375 C-81.02002895 80.8541288 -80.30383271 82.47713671 -79 85 C-79 86.32 -79 87.64 -79 89 C-81.50301771 90.18198059 -83.39601183 91.0172568 -86.1875 90.9375 C-88 90 -88 90 -89.25 87.75 C-89.99453489 85.02003872 -90.1607411 82.81296916 -90 80 C-90.66 80 -91.32 80 -92 80 C-92.93828835 74.45963072 -93.15160485 69.11362391 -93.125 63.5 C-93.12886719 62.68402344 -93.13273437 61.86804688 -93.13671875 61.02734375 C-93.12904474 56.24643582 -92.79841094 51.71442649 -92 47 C-91.34 47 -90.68 47 -90 47 C-89.7834375 45.14375 -89.7834375 45.14375 -89.5625 43.25 C-89.21311498 40.43495501 -88.79620634 37.7298503 -88 35 C-87.34 35 -86.68 35 -86 35 C-85.67 33.35 -85.34 31.7 -85 30 C-84.34 30 -83.68 30 -83 30 C-82.7834375 29.14148437 -82.566875 28.28296875 -82.34375 27.3984375 C-80.71785379 23.28643256 -78.51799183 20.78336354 -75.5 17.625 C-75.00113281 17.07972656 -74.50226563 16.53445312 -73.98828125 15.97265625 C-72.70686813 14.60192211 -71.35788564 13.29502056 -70 12 C-69.34 12 -68.68 12 -68 12 C-68 11.34 -68 10.68 -68 10 C-66.3203125 8.7109375 -66.3203125 8.7109375 -64.125 7.375 C-63.40570313 6.92898438 -62.68640625 6.48296875 -61.9453125 6.0234375 C-60 5 -60 5 -58 5 C-58 4.34 -58 3.68 -58 3 C-56.02 2.67 -54.04 2.34 -52 2 C-52 1.34 -52 0.68 -52 0 C-36.24100917 -5.35933291 -15.75899083 -5.35933291 0 0 Z M-34 7 C-34 7.66 -34 8.32 -34 9 C-34.5775 9.2475 -35.155 9.495 -35.75 9.75 C-38.34908658 11.19393699 -40.07836838 12.73521987 -42 15 C-42 15.99 -42 16.98 -42 18 C-42.66 18 -43.32 18 -44 18 C-44.99 21.465 -44.99 21.465 -46 25 C-42.33552568 26.64800856 -39.18796534 27.33580973 -35.1875 27.625 C-33.475625 27.74875 -31.76375 27.8725 -30 28 C-30 20.74 -30 13.48 -30 6 C-32.0745356 5.8509288 -32.0745356 5.8509288 -34 7 Z M-22 6 C-22 13.26 -22 20.52 -22 28 C-20.288125 27.87625 -18.57625 27.7525 -16.8125 27.625 C-15.84957031 27.55539063 -14.88664062 27.48578125 -13.89453125 27.4140625 C-10.98491062 26.99784147 -8.67109226 26.20125904 -6 25 C-7.4359159 19.399928 -10.18101506 14.33975561 -14 10 C-16.09798845 9.18952342 -16.09798845 9.18952342 -18 9 C-18 8.34 -18 7.68 -18 7 C-19.32 6.67 -20.64 6.34 -22 6 Z M-54.625 12 C-55.73875 12.66 -56.8525 13.32 -58 14 C-58 14.66 -58 15.32 -58 16 C-58.99 16.495 -58.99 16.495 -60 17 C-57.94766315 19.2477975 -56.99332739 20.0022242 -54 21 C-53.16151196 19.54462432 -52.32936066 18.08559627 -51.5 16.625 C-51.0359375 15.81289063 -50.571875 15.00078125 -50.09375 14.1640625 C-48.84964141 12.10663126 -48.84964141 12.10663126 -49 10 C-51.46301423 10 -52.52063278 10.75296757 -54.625 12 Z M-3 10 C-1.35 13.63 0.3 17.26 2 21 C4.31 19.68 6.62 18.36 9 17 C5.71195019 14.08772731 3.40114397 12.50298788 -1 12 C-1 11.34 -1 10.68 -1 10 C-1.66 10 -2.32 10 -3 10 Z M-68 23 C-69.485 24.485 -69.485 24.485 -71 26 C-71 26.66 -71 27.32 -71 28 C-71.66 28 -72.32 28 -73 28 C-73.66 29.98 -74.32 31.96 -75 34 C-75.66 34 -76.32 34 -77 34 C-78.49821059 37.37097383 -79 39.20442119 -79 43 C-79.66 43 -80.32 43 -81 43 C-81.99 48.28 -82.98 53.56 -84 59 C-76.41 59 -68.82 59 -61 59 C-60.67 55.65875 -60.34 52.3175 -60 48.875 C-59.89558594 47.83327637 -59.79117188 46.79155273 -59.68359375 45.71826172 C-59.23852649 41.12718095 -58.87556739 36.61956069 -59 32 C-58.34 32 -57.68 32 -57 32 C-57 31.01 -57 30.02 -57 29 C-60.63 27.02 -64.26 25.04 -68 23 Z M15 23 C13.02 23.99 13.02 23.99 11 25 C11 25.66 11 26.32 11 27 C9.35 27.66 7.7 28.32 6 29 C6.14037521 30.81293089 6.28744889 32.6253443 6.4375 34.4375 C6.51871094 35.44683594 6.59992188 36.45617187 6.68359375 37.49609375 C6.73211468 39.93640779 6.73211468 39.93640779 8 41 C8.22513101 42.33802186 8.39360807 43.68573023 8.53515625 45.03515625 C8.61386963 45.76355713 8.69258301 46.49195801 8.77368164 47.24243164 C8.91664673 48.63836548 8.91664673 48.63836548 9.0625 50.0625 C9.371875 53.011875 9.68125 55.96125 10 59 C17.26 59 24.52 59 32 59 C31.3237863 51.72651408 31.3237863 51.72651408 29.5 45.125 C29.2421875 44.40570313 28.984375 43.68640625 28.71875 42.9453125 C28.4815625 42.30335937 28.244375 41.66140625 28 41 C27.67 40.01 27.34 39.02 27 38 C26.34 38 25.68 38 25 38 C24.95875 37.34 24.9175 36.68 24.875 36 C23.28423165 30.5459371 19.69272195 26.1284813 15 23 Z M-49 34 C-50.4783226 36.95664519 -50.06032783 39.74229737 -50 43 C-50.66 43 -51.32 43 -52 43 C-52.33 48.28 -52.66 53.56 -53 59 C-45.41 59 -37.82 59 -30 59 C-29.979375 55.555625 -29.95875 52.11125 -29.9375 48.5625 C-29.928396 47.47525635 -29.91929199 46.3880127 -29.90991211 45.26782227 C-29.90741455 44.41760498 -29.90491699 43.5673877 -29.90234375 42.69140625 C-29.89710693 41.81685791 -29.89187012 40.94230957 -29.88647461 40.04125977 C-29.77215191 38.00559794 -29.77215191 38.00559794 -31 37 C-32.51928038 36.92820036 -34.04167482 36.91607993 -35.5625 36.9375 C-36.38878906 36.94652344 -37.21507812 36.95554688 -38.06640625 36.96484375 C-39.02353516 36.98224609 -39.02353516 36.98224609 -40 37 C-40 36.34 -40 35.68 -40 35 C-42.97 34.67 -45.94 34.34 -49 34 Z M-11 35 C-11 35.66 -11 36.32 -11 37 C-14.63 37 -18.26 37 -22 37 C-22 44.26 -22 51.52 -22 59 C-14.41 59 -6.82 59 1 59 C0.690625 55.803125 0.38125 52.60625 0.0625 49.3125 C-0.03281006 48.31387939 -0.12812012 47.31525879 -0.22631836 46.28637695 C-0.30503174 45.48675537 -0.38374512 44.68713379 -0.46484375 43.86328125 C-0.543396 43.05157471 -0.62194824 42.23986816 -0.70288086 41.40356445 C-1.01211634 38.90198406 -1.47634232 36.46483559 -2 34 C-5.27275026 34 -7.846632 34.29925156 -11 35 Z " fill="#007046" transform="translate(102,3)"/>
<path d="M0 0 C4.85226158 0.04000687 8.74547303 0.67238208 13.375 2.1875 C17.0296913 2.92441323 20.6996219 3.56275219 24.375 4.1875 C24.375 4.8475 24.375 5.5075 24.375 6.1875 C24.95507812 6.21328125 25.53515625 6.2390625 26.1328125 6.265625 C31.70704835 6.670355 35.07740008 7.5510693 39.375 11.1875 C39.375 11.8475 39.375 12.5075 39.375 13.1875 C40.035 13.1875 40.695 13.1875 41.375 13.1875 C42.88150776 17.70702327 43.12063919 21.54709378 41.125 25.9375 C39.28586897 28.30209704 37.95078999 29.66030019 35.375 31.1875 C32.140625 31.48046875 32.140625 31.48046875 28.625 31.375 C27.45453125 31.34792969 26.2840625 31.32085937 25.078125 31.29296875 C24.18609375 31.25816406 23.2940625 31.22335938 22.375 31.1875 C22.375 30.5275 22.375 29.8675 22.375 29.1875 C20.395 29.1875 18.415 29.1875 16.375 29.1875 C16.375 29.8475 16.375 30.5075 16.375 31.1875 C17.509375 31.331875 18.64375 31.47625 19.8125 31.625 C23.375 32.1875 23.375 32.1875 24.375 33.1875 C26.14247729 33.31312235 27.91560292 33.36326558 29.6875 33.375 C30.65300781 33.38917969 31.61851563 33.40335938 32.61328125 33.41796875 C35.42814876 33.18306467 36.92910982 32.50692476 39.375 31.1875 C40.365 31.1875 41.355 31.1875 42.375 31.1875 C42.375 30.5275 42.375 29.8675 42.375 29.1875 C43.2 28.795625 44.025 28.40375 44.875 28 C47.5289258 26.62564557 49.80122449 25.23211967 52.25 23.5625 C56.31515281 20.94918748 59.58384382 20.44416908 64.375 20.1875 C64.375 19.5275 64.375 18.8675 64.375 18.1875 C66.025 18.1875 67.675 18.1875 69.375 18.1875 C69.375 18.8475 69.375 19.5075 69.375 20.1875 C71.025 20.5175 72.675 20.8475 74.375 21.1875 C74.705 22.1775 75.035 23.1675 75.375 24.1875 C76.035 24.1875 76.695 24.1875 77.375 24.1875 C77.375 27.1575 77.375 30.1275 77.375 33.1875 C76.715 33.1875 76.055 33.1875 75.375 33.1875 C75.33375 33.909375 75.2925 34.63125 75.25 35.375 C73.97618706 39.46939875 71.84071675 40.71198804 68.375 43.1875 C67.715 43.1875 67.055 43.1875 66.375 43.1875 C66.375 43.8475 66.375 44.5075 66.375 45.1875 C64.395 45.8475 62.415 46.5075 60.375 47.1875 C60.375 47.8475 60.375 48.5075 60.375 49.1875 C58.6953125 50.4765625 58.6953125 50.4765625 56.5 51.8125 C55.78070313 52.25851563 55.06140625 52.70453125 54.3203125 53.1640625 C52.375 54.1875 52.375 54.1875 50.375 54.1875 C50.375 54.8475 50.375 55.5075 50.375 56.1875 C48.64898621 57.00667642 46.9190353 57.81756016 45.1875 58.625 C44.22457031 59.07746094 43.26164062 59.52992188 42.26953125 59.99609375 C28.80410477 65.53854325 9.70999674 62.97157361 -3.6015625 58.09765625 C-12.49335111 55.42092919 -23.13584189 56.74594942 -31.625 60.1875 C-32.945 60.1875 -34.265 60.1875 -35.625 60.1875 C-35.95113281 59.58421875 -36.27726562 58.9809375 -36.61328125 58.359375 C-37.26876953 57.16054687 -37.26876953 57.16054687 -37.9375 55.9375 C-38.36675781 55.14859375 -38.79601563 54.3596875 -39.23828125 53.546875 C-40.5784484 51.15577026 -40.5784484 51.15577026 -42.29296875 49.015625 C-43.625 47.1875 -43.625 47.1875 -43.625 45.1875 C-44.285 45.1875 -44.945 45.1875 -45.625 45.1875 C-47.02734375 43.17578125 -47.02734375 43.17578125 -48.5625 40.5 C-49.06652344 39.62988281 -49.57054687 38.75976562 -50.08984375 37.86328125 C-50.59644531 36.98027344 -51.10304688 36.09726563 -51.625 35.1875 C-52.20378906 34.35605469 -52.78257813 33.52460937 -53.37890625 32.66796875 C-54.625 30.1875 -54.625 30.1875 -54.703125 27.6640625 C-53.16221199 24.12442899 -50.52702084 22.56268828 -47.375 20.5625 C-46.80136719 20.1809375 -46.22773437 19.799375 -45.63671875 19.40625 C-43.98010473 18.31190361 -42.30281497 17.24905592 -40.625 16.1875 C-39.70203125 15.60226563 -38.7790625 15.01703125 -37.828125 14.4140625 C-35.625 13.1875 -35.625 13.1875 -33.625 13.1875 C-33.625 12.5275 -33.625 11.8675 -33.625 11.1875 C-32.02467863 10.34680585 -30.41958829 9.51518495 -28.8125 8.6875 C-27.91917969 8.2234375 -27.02585937 7.759375 -26.10546875 7.28125 C-23.625 6.1875 -23.625 6.1875 -20.625 6.1875 C-20.625 5.5275 -20.625 4.8675 -20.625 4.1875 C-19.62597656 3.98253906 -18.62695312 3.77757813 -17.59765625 3.56640625 C-16.30730469 3.29699219 -15.01695313 3.02757813 -13.6875 2.75 C-12.39972656 2.48316406 -11.11195312 2.21632813 -9.78515625 1.94140625 C-1.69132434 0.01049209 -1.69132434 0.01049209 0 0 Z M-27.625 18.1875 C-27.625 18.8475 -27.625 19.5075 -27.625 20.1875 C-28.40875 20.373125 -29.1925 20.55875 -30 20.75 C-35.10407213 22.7740286 -39.22868497 25.93804976 -43.625 29.1875 C-42.19374399 33.10198518 -40.34988708 36.47883338 -38.125 40 C-37.5165625 40.97582031 -36.908125 41.95164062 -36.28125 42.95703125 C-35.46140625 44.06111328 -35.46140625 44.06111328 -34.625 45.1875 C-33.965 45.1875 -33.305 45.1875 -32.625 45.1875 C-32.295 46.5075 -31.965 47.8275 -31.625 49.1875 C-29.645 49.1875 -27.665 49.1875 -25.625 49.1875 C-25.625 48.5275 -25.625 47.8675 -25.625 47.1875 C-18.035 47.1875 -10.445 47.1875 -2.625 47.1875 C-2.625 47.8475 -2.625 48.5075 -2.625 49.1875 C-2.03332031 49.30867188 -1.44164062 49.42984375 -0.83203125 49.5546875 C5.83317376 50.96818938 5.83317376 50.96818938 9 52.25 C18.51795881 56.007089 30.12608466 55.19660645 39.375 51.1875 C45.34911904 48.59005694 51.13594813 45.05619488 56.375 41.1875 C56.375 40.5275 56.375 39.8675 56.375 39.1875 C57.695 38.8575 59.015 38.5275 60.375 38.1875 C60.375 37.5275 60.375 36.8675 60.375 36.1875 C61.798125 35.878125 61.798125 35.878125 63.25 35.5625 C66.66666667 34.47916667 66.66666667 34.47916667 67.75 31.0625 C67.95625 30.11375 68.1625 29.165 68.375 28.1875 C64.23406302 27.97779441 64.23406302 27.97779441 60.375 29.1875 C60.375 29.8475 60.375 30.5075 60.375 31.1875 C59.59125 31.331875 58.8075 31.47625 58 31.625 C55.41078982 32.06548925 55.41078982 32.06548925 53.375 33.1875 C53.375 33.8475 53.375 34.5075 53.375 35.1875 C51.725 35.5175 50.075 35.8475 48.375 36.1875 C48.375 36.8475 48.375 37.5075 48.375 38.1875 C46.98050891 38.670559 45.58433293 39.14875517 44.1875 39.625 C43.02154297 40.02525391 43.02154297 40.02525391 41.83203125 40.43359375 C32.31668416 43.35324715 22.26708258 42.63354129 13.375 38.1875 C12.055 38.1875 10.735 38.1875 9.375 38.1875 C9.375 37.5275 9.375 36.8675 9.375 36.1875 C8.323125 35.73375 7.27125 35.28 6.1875 34.8125 C5.55070312 34.53148438 4.91390625 34.25046875 4.2578125 33.9609375 C2.25404876 33.09057264 2.25404876 33.09057264 -0.4375 32.4375 C-2.625 31.1875 -2.625 31.1875 -4.125 27.875 C-4.625 24.1875 -4.625 24.1875 -3.375 21.3125 C-1.625 19.1875 -1.625 19.1875 0.375 18.1875 C1.75048156 18.10441362 3.12985796 18.08013984 4.5078125 18.08984375 C5.31347656 18.09306641 6.11914062 18.09628906 6.94921875 18.09960938 C7.79097656 18.10798828 8.63273437 18.11636719 9.5 18.125 C10.34949219 18.12951172 11.19898438 18.13402344 12.07421875 18.13867188 C14.17450909 18.15047126 16.2747633 18.16840694 18.375 18.1875 C18.375 18.8475 18.375 19.5075 18.375 20.1875 C23.68223432 21.61455634 27.91391111 22.5877792 33.375 21.1875 C33.375 19.8675 33.375 18.5475 33.375 17.1875 C28.22343007 15.08871225 23.34962336 13.65854173 17.8671875 12.71484375 C15.375 12.1875 15.375 12.1875 12.5703125 11.15625 C-1.60164071 6.85961871 -15.01938046 11.74294788 -27.625 18.1875 Z " fill="#007046" transform="translate(55.625,87.8125)"/>
<path d="M0 0 C3.29164829 -0.02895225 6.58326399 -0.0467823 9.875 -0.0625 C10.81214844 -0.07087891 11.74929687 -0.07925781 12.71484375 -0.08789062 C14.05869141 -0.09272461 14.05869141 -0.09272461 15.4296875 -0.09765625 C16.67081299 -0.10551147 16.67081299 -0.10551147 17.93701172 -0.11352539 C20 0 20 0 22 1 C21.67 1.66 21.34 2.32 21 3 C14.07 3 7.14 3 0 3 C0 2.01 0 1.02 0 0 Z " fill="#004D2F" transform="translate(50,69)"/>
<path d="M0 0 C6.6 0 13.2 0 20 0 C20 0.66 20 1.32 20 2 C17.703463 3.1482685 16.41686833 3.11561175 13.8671875 3.09765625 C13.06152344 3.09443359 12.25585938 3.09121094 11.42578125 3.08789062 C10.58402344 3.07951172 9.74226563 3.07113281 8.875 3.0625 C8.02550781 3.05798828 7.17601563 3.05347656 6.30078125 3.04882812 C4.20049091 3.03702874 2.1002367 3.01909306 0 3 C0 2.01 0 1.02 0 0 Z " fill="#004F30" transform="translate(113,69)"/>
<path d="M0 0 C3.12492251 -0.05791844 6.24970766 -0.09356746 9.375 -0.125 C10.26445313 -0.14175781 11.15390625 -0.15851563 12.0703125 -0.17578125 C12.92109375 -0.18222656 13.771875 -0.18867187 14.6484375 -0.1953125 C15.82672119 -0.21102295 15.82672119 -0.21102295 17.02880859 -0.22705078 C19 0 19 0 21 2 C18.65147472 3.17426264 17.26225935 3.11508173 14.6484375 3.09765625 C13.79765625 3.09443359 12.946875 3.09121094 12.0703125 3.08789062 C11.18085937 3.07951172 10.29140625 3.07113281 9.375 3.0625 C8.4778125 3.05798828 7.580625 3.05347656 6.65625 3.04882812 C4.43743352 3.03702591 2.21874982 3.02056155 0 3 C0 2.01 0 1.02 0 0 Z " fill="#004D2F" transform="translate(82,69)"/>
<path d="M0 0 C6.27 0 12.54 0 19 0 C19.33 0.66 19.66 1.32 20 2 C17.703463 3.1482685 16.41686833 3.11561175 13.8671875 3.09765625 C13.06152344 3.09443359 12.25585938 3.09121094 11.42578125 3.08789062 C10.58402344 3.07951172 9.74226563 3.07113281 8.875 3.0625 C8.02550781 3.05798828 7.17601562 3.05347656 6.30078125 3.04882812 C4.20049091 3.03702874 2.1002367 3.01909306 0 3 C0 2.01 0 1.02 0 0 Z " fill="#004E30" transform="translate(20,69)"/>
<path d="" fill="#000000" transform="translate(0,0)"/>
<path d="" fill="#000000" transform="translate(0,0)"/>
<path d="" fill="#000000" transform="translate(0,0)"/>
<path d="" fill="#000000" transform="translate(0,0)"/>
</svg>
