<?xml version="1.0" encoding="UTF-8"?>
<svg version="1.1" xmlns="http://www.w3.org/2000/svg" width="44" height="24">
<path d="M0 0 C14.52 0 29.04 0 44 0 C44 7.92 44 15.84 44 24 C29.48 24 14.96 24 0 24 C0 16.08 0 8.16 0 0 Z " fill="#ECF0E3" transform="translate(0,0)"/>
<path d="M0 0 C0.9796875 0.01417969 1.959375 0.02835937 2.96875 0.04296875 C3.9484375 0.04941406 4.928125 0.05585937 5.9375 0.0625 C8.46875 0.23046875 8.46875 0.23046875 10.46875 1.23046875 C10.46875 5.52046875 10.46875 9.81046875 10.46875 14.23046875 C7.70422967 15.61272891 5.4226137 15.32572262 2.34375 15.29296875 C1.24804688 15.28394531 0.15234375 15.27492188 -0.9765625 15.265625 C-2.24113281 15.24822266 -2.24113281 15.24822266 -3.53125 15.23046875 C-4.83214831 12.62867212 -4.69965078 10.63354995 -4.71875 7.73046875 C-4.73292969 6.75078125 -4.74710937 5.77109375 -4.76171875 4.76171875 C-4.43951355 1.22292262 -3.53879613 0.3222052 0 0 Z " fill="#CFD2C7" transform="translate(8.53125,3.76953125)"/>
<path d="M0 0 C2.3125 -0.1875 2.3125 -0.1875 5 0 C6.6875 1.5 6.6875 1.5 8 3 C8.66 3 9.32 3 10 3 C10.66 2.01 11.32 1.02 12 0 C12.99 0.33 13.98 0.66 15 1 C13.68 2.65 12.36 4.3 11 6 C11.639375 7.11375 12.27875 8.2275 12.9375 9.375 C14.00526106 11.23497087 15.04071468 13.08142937 16 15 C11.48279689 15.36625971 11.48279689 15.36625971 9.1875 13.625 C8 12 8 12 8 10 C7.34 10 6.68 10 6 10 C5.34 11.32 4.68 12.64 4 14 C3.01 14 2.02 14 1 14 C2.32 12.35 3.64 10.7 5 9 C3.50163895 5.88801935 1.80066242 2.9465385 0 0 Z " fill="#7C7C78" transform="translate(22,4)"/>
<path d="M0 0 C3.125 0.375 3.125 0.375 6 1 C6.042721 2.66611905 6.04063832 4.33382885 6 6 C5 7 5 7 1.9375 7.0625 C0.968125 7.041875 -0.00125 7.02125 -1 7 C-1.625 4.625 -1.625 4.625 -2 2 C-1.34 1.34 -0.68 0.68 0 0 Z " fill="#ADAEA6" transform="translate(10,8)"/>
<path d="M0 0 C2.57750751 2.50591008 4.95491004 4.94032211 7.125 7.8125 C7.74375 8.534375 8.3625 9.25625 9 10 C9.99 10 10.98 10 12 10 C12.33 10.66 12.66 11.32 13 12 C8.48279689 12.36625971 8.48279689 12.36625971 6.1875 10.625 C5 9 5 9 5 7 C4.34 7 3.68 7 3 7 C2.34 8.32 1.68 9.64 1 11 C0.01 11 -0.98 11 -2 11 C-1.29875 10.29875 -0.5975 9.5975 0.125 8.875 C0.74375 7.92625 1.3625 6.9775 2 6 C1.37963682 2.71895528 1.37963682 2.71895528 0 0 Z " fill="#605F5D" transform="translate(25,7)"/>
<path d="M0 0 C2.25 -0.3125 2.25 -0.3125 5 0 C7.375 2.25 7.375 2.25 9 5 C8.75 7.3125 8.75 7.3125 8 9 C7.4225 8.2575 6.845 7.515 6.25 6.75 C4.27746474 4.33912357 2.23955718 2.15957299 0 0 Z " fill="#8D8E89" transform="translate(22,4)"/>
<path d="M0 0 C0.99 0.33 1.98 0.66 3 1 C2.67 2.32 2.34 3.64 2 5 C0.35 4.67 -1.3 4.34 -3 4 C-2.01 2.68 -1.02 1.36 0 0 Z " fill="#EEF2E5" transform="translate(12,9)"/>
</svg>
