<?xml version="1.0" encoding="UTF-8"?>
<svg version="1.1" xmlns="http://www.w3.org/2000/svg" width="158" height="128">
<path d="M0 0 C3.79165074 -0.0289337 7.58327327 -0.04677601 11.375 -0.0625 C12.45523437 -0.07087891 13.53546875 -0.07925781 14.6484375 -0.08789062 C16.1953125 -0.09272461 16.1953125 -0.09272461 17.7734375 -0.09765625 C18.72653809 -0.10289307 19.67963867 -0.10812988 20.66162109 -0.11352539 C23 0 23 0 25 1 C26.26761762 5.29581527 27 8.50944298 27 13 C27.66 13 28.32 13 29 13 C29 13.66 29 14.32 29 15 C70.25 15.33 111.5 15.66 154 16 C153.67 18.64 153.34 21.28 153 24 C152.34 24 151.68 24 151 24 C150.67 26.31 150.34 28.62 150 31 C149.34 31 148.68 31 148 31 C147.89042969 31.64066406 147.78085938 32.28132813 147.66796875 32.94140625 C146.67115892 38.37928749 145.30594402 42.98707822 143 48 C142.62691369 49.32276056 142.26953585 50.65232077 142 52 C141.34 52 140.68 52 140 52 C139.34 55.63 138.68 59.26 138 63 C137.34 63 136.68 63 136 63 C135.855625 64.093125 135.71125 65.18625 135.5625 66.3125 C135 70 135 70 134 73 C133.34 73 132.68 73 132 73 C132 73.99 132 74.98 132 76 C130.27778732 76.0154612 130.27778732 76.0154612 128.52078247 76.03123474 C117.71970066 76.12883785 106.91867815 76.23155932 96.11769295 76.33933926 C90.5643223 76.39458896 85.01094641 76.44801223 79.45751953 76.49731445 C74.10179826 76.5449278 68.74614247 76.5972695 63.39049911 76.65294075 C61.34351092 76.67337805 59.29650476 76.69208882 57.24948502 76.70907402 C54.39037813 76.7330876 51.53139572 76.76314629 48.67236328 76.79467773 C47.81928589 76.8004332 46.9662085 76.80618866 46.08728027 76.81211853 C41.90981493 76.75544922 41.90981493 76.75544922 38 78 C38 80.31 38 82.62 38 85 C40.32012731 86.16006366 41.68076963 86.13683852 44.26467896 86.15821838 C45.15932861 86.1680072 46.05397827 86.17779602 46.97573853 86.18788147 C48.45172012 86.19651466 48.45172012 86.19651466 49.95751953 86.20532227 C51.50877533 86.22017166 51.50877533 86.22017166 53.09136963 86.23532104 C56.52182701 86.26699838 59.95229827 86.29171811 63.3828125 86.31640625 C65.75650398 86.33697039 68.13019175 86.35796672 70.50387573 86.37937927 C76.76085412 86.43465567 83.01786587 86.48404037 89.27490234 86.53222656 C95.65595478 86.58240098 102.03695861 86.6381082 108.41796875 86.69335938 C120.94527072 86.80100904 133.47261416 86.90262662 146 87 C146 89.64 146 92.28 146 95 C131.8745555 95.07011102 117.74913802 95.12279889 103.62355518 95.15543652 C97.06464928 95.17110002 90.50586017 95.19235112 83.94702148 95.22631836 C77.61874428 95.25888688 71.2905795 95.27684786 64.96222496 95.28463173 C62.54646726 95.2901797 60.13071578 95.30101336 57.71500587 95.31719017 C54.33436351 95.33893064 50.95418722 95.34196828 47.57348633 95.34057617 C46.57223221 95.351362 45.57097809 95.36214783 44.53938293 95.3732605 C38.41416627 95.34592293 34.7243219 94.7243219 30.25 90.25 C27.82368389 85.882631 27.68609596 81.61387473 28.6875 76.8125 C29.69530538 73.29880017 31.03228431 71.24826947 34 69 C34.99 68.67 35.98 68.34 37 68 C36.45486564 63.63892511 35.30863188 59.95071138 33.62109375 55.9296875 C33 54 33 54 33 50 C32.34 50 31.68 50 31 50 C29.80712589 46.12315913 29 43.08378077 29 39 C28.34 39 27.68 39 27 39 C26.34 35.37 25.68 31.74 25 28 C24.34 28 23.68 28 23 28 C22.67 25.36 22.34 22.72 22 20 C21.34 20 20.68 20 20 20 C19.01 16.37 18.02 12.74 17 9 C11.39 8.67 5.78 8.34 0 8 C0 5.36 0 2.72 0 0 Z M31 24 C31.99 24.495 31.99 24.495 33 25 C33.39460023 27.32375692 33.72230092 29.6593935 34 32 C34.30903983 33.33917261 34.62942911 34.67653254 35 36 C35.66 36 36.32 36 37 36 C37.33 38.64 37.66 41.28 38 44 C38.66 44 39.32 44 40 44 C40.66 47.63 41.32 51.26 42 55 C42.66 55 43.32 55 44 55 C44.12375 56.051875 44.2475 57.10375 44.375 58.1875 C44.91457179 61.47888791 45.51730674 64.03461348 47 67 C49.94292442 68.47146221 52.92809555 68.17319212 56.15600586 68.19287109 C56.8927504 68.20104858 57.62949493 68.20922607 58.38856506 68.21765137 C60.83064964 68.24249903 63.27267625 68.25901707 65.71484375 68.2734375 C66.54773989 68.27876118 67.38063602 68.28408485 68.23877144 68.28956985 C72.64476731 68.31629498 77.05073486 68.33567443 81.45678711 68.35009766 C86.01476268 68.36677082 90.57201873 68.41157189 95.12972164 68.4624691 C98.62896083 68.49606339 102.12802729 68.50766624 105.6274128 68.51332474 C107.30801474 68.52005582 108.98860459 68.53532597 110.66905022 68.55921555 C113.01817093 68.59071346 115.36532462 68.59092863 117.71459961 68.58349609 C118.41132782 68.59990143 119.10805603 68.61630676 119.82589722 68.63320923 C121.99756025 68.66070415 121.99756025 68.66070415 125 68 C128.08419743 64.29356883 128.53600766 60.73272185 129 56 C129.66 56 130.32 56 131 56 C131.39832031 54.78183594 131.79664063 53.56367187 132.20703125 52.30859375 C132.74202456 50.68484214 133.27718996 49.06114722 133.8125 47.4375 C134.20405273 46.23770508 134.20405273 46.23770508 134.60351562 45.01367188 C135.82651136 41.31448725 137.08722669 37.70919226 138.69921875 34.16015625 C140.25375655 30.95308296 140.25375655 30.95308296 140 27 C140.66 27 141.32 27 142 27 C142 26.01 142 25.02 142 24 C105.37 24 68.74 24 31 24 Z " fill="#007146" transform="translate(2,0)"/>
<path d="M0 0 C3.43988497 1.8623581 6.13467053 3.79474847 8.02734375 7.24609375 C8.02734375 8.23609375 8.02734375 9.22609375 8.02734375 10.24609375 C8.68734375 10.24609375 9.34734375 10.24609375 10.02734375 10.24609375 C10.71571943 19.9215964 10.71571943 19.9215964 8.15234375 23.87109375 C7.10046875 25.04671875 7.10046875 25.04671875 6.02734375 26.24609375 C5.36734375 26.24609375 4.70734375 26.24609375 4.02734375 26.24609375 C4.02734375 26.90609375 4.02734375 27.56609375 4.02734375 28.24609375 C0.63163145 30.30311178 -2.03442215 30.51578492 -5.97265625 30.49609375 C-7.51953125 30.50382812 -7.51953125 30.50382812 -9.09765625 30.51171875 C-13.41286721 30.11303078 -15.30041701 28.97435293 -18.22265625 25.80859375 C-19.97265625 23.24609375 -19.97265625 23.24609375 -19.97265625 20.24609375 C-20.63265625 20.24609375 -21.29265625 20.24609375 -21.97265625 20.24609375 C-21.97265625 16.94609375 -21.97265625 13.64609375 -21.97265625 10.24609375 C-21.31265625 10.24609375 -20.65265625 10.24609375 -19.97265625 10.24609375 C-19.93140625 9.52421875 -19.89015625 8.80234375 -19.84765625 8.05859375 C-18.6098752 4.08001179 -16.2956448 2.63864551 -12.97265625 0.24609375 C-8.60793543 -1.20881319 -4.33794031 -1.6578663 0 0 Z M-10.91015625 9.24609375 C-12.63415382 12.49126564 -12.62764041 15.66600988 -11.97265625 19.24609375 C-10.54982985 21.50072624 -10.54982985 21.50072624 -7.97265625 22.24609375 C-4.28450332 22.01741281 -4.28450332 22.01741281 -0.97265625 21.24609375 C-0.64265625 19.92609375 -0.31265625 18.60609375 0.02734375 17.24609375 C0.68734375 17.24609375 1.34734375 17.24609375 2.02734375 17.24609375 C2.02734375 15.92609375 2.02734375 14.60609375 2.02734375 13.24609375 C1.36734375 13.24609375 0.70734375 13.24609375 0.02734375 13.24609375 C-0.11703125 12.60671875 -0.26140625 11.96734375 -0.41015625 11.30859375 C-0.78272806 9.27064229 -0.78272806 9.27064229 -1.97265625 8.24609375 C-6.59428548 7.85231554 -6.59428548 7.85231554 -10.91015625 9.24609375 Z " fill="#007147" transform="translate(58.97265625,97.75390625)"/>
<path d="M0 0 C3.86474354 2.45938225 6.28441109 4.35323328 7.75 8.75 C8.66638053 20.1342658 8.66638053 20.1342658 4.75 24.75 C0.29608577 29.60881552 0.29608577 29.60881552 -3.859375 29.98828125 C-8.67366619 30.10205181 -12.30540459 30.17169438 -16.75 28.1875 C-20.90546975 24.13591699 -23.46294469 20.50263361 -23.5625 14.5625 C-23.33460418 11.78217098 -23.1261843 9.37855291 -22.25 6.75 C-21.59 6.75 -20.93 6.75 -20.25 6.75 C-19.9715625 5.88375 -19.9715625 5.88375 -19.6875 5 C-15.18490885 -2.04753397 -7.27095488 -2.79652111 0 0 Z M-13.1875 9.375 C-14.53373354 12.38422792 -14.59745351 14.48393703 -14.25 17.75 C-12.644538 20.8363543 -12.644538 20.8363543 -10.41015625 21.33203125 C-9.71792969 21.40808594 -9.02570313 21.48414063 -8.3125 21.5625 C-7.27802734 21.69591797 -7.27802734 21.69591797 -6.22265625 21.83203125 C-3.92338831 21.90756236 -3.92338831 21.90756236 -1.25 19.75 C-0.41097774 15.90448132 0.00360525 13.51081574 -1.25 9.75 C-5.18244802 7.12836799 -9.30713934 6.12050396 -13.1875 9.375 Z " fill="#007046" transform="translate(134.25,98.25)"/>
<path d="" fill="#000000" transform="translate(0,0)"/>
<path d="" fill="#000000" transform="translate(0,0)"/>
<path d="" fill="#000000" transform="translate(0,0)"/>
<path d="" fill="#000000" transform="translate(0,0)"/>
<path d="" fill="#000000" transform="translate(0,0)"/>
<path d="" fill="#000000" transform="translate(0,0)"/>
<path d="" fill="#000000" transform="translate(0,0)"/>
</svg>
